<svg width="44" height="32" viewBox="0 0 44 32" fill="none" xmlns="http://www.w3.org/2000/svg">
<g id="Group 6936">
<path id="Vector" d="M19.1575 1.12549C19.4406 1.2619 19.6796 1.47539 19.8469 1.74146C20.0143 2.00753 20.1032 2.31538 20.1035 2.62969V29.371C20.103 29.6855 20.0138 29.9935 19.8462 30.2595C19.6785 30.5256 19.4392 30.739 19.1557 30.8752C18.8722 31.0113 18.5561 31.0647 18.2436 31.0293C17.9311 30.9938 17.635 30.8709 17.3892 30.6746L9.4905 24.357H1.71882C1.27555 24.357 0.850442 24.1809 0.537007 23.8675C0.223571 23.554 0.0474854 23.1289 0.0474854 22.6857V9.31501C0.0474854 8.87175 0.223571 8.44664 0.537007 8.1332C0.850442 7.81977 1.27555 7.64368 1.71882 7.64368H9.4905L17.3892 1.32605C17.6351 1.12946 17.9316 1.00634 18.2444 0.970854C18.5573 0.935371 18.8738 0.988975 19.1575 1.12549ZM43.0141 8.13171C43.1697 8.28696 43.2932 8.47139 43.3774 8.67445C43.4617 8.8775 43.5051 9.09517 43.5051 9.31501C43.5051 9.53485 43.4617 9.75253 43.3774 9.95558C43.2932 10.1586 43.1697 10.3431 43.0141 10.4983L37.5087 16.0003L43.0141 21.5024C43.3279 21.8162 43.5042 22.2418 43.5042 22.6857C43.5042 23.1295 43.3279 23.5551 43.0141 23.869C42.7002 24.1828 42.2746 24.3591 41.8307 24.3591C41.3869 24.3591 40.9613 24.1828 40.6474 23.869L35.1454 18.3636L29.6434 23.869C29.3296 24.1828 28.9039 24.3591 28.4601 24.3591C28.0163 24.3591 27.5906 24.1828 27.2768 23.869C26.963 23.5551 26.7867 23.1295 26.7867 22.6857C26.7867 22.2418 26.963 21.8162 27.2768 21.5024L32.7822 16.0003L27.2768 10.4983C27.1214 10.3429 26.9981 10.1584 26.914 9.95541C26.8299 9.75238 26.7867 9.53477 26.7867 9.31501C26.7867 9.09525 26.8299 8.87764 26.914 8.67461C26.9981 8.47158 27.1214 8.2871 27.2768 8.13171C27.5906 7.81788 28.0163 7.64157 28.4601 7.64157C28.6799 7.64157 28.8975 7.68485 29.1005 7.76895C29.3035 7.85305 29.488 7.97632 29.6434 8.13171L35.1454 13.6371L40.6474 8.13171C40.8027 7.97606 40.9871 7.85258 41.1902 7.76832C41.3932 7.68406 41.6109 7.64069 41.8307 7.64069C42.0506 7.64069 42.2683 7.68406 42.4713 7.76832C42.6744 7.85258 42.8588 7.97606 43.0141 8.13171Z" fill="#FEEE1E"/>
</g>
</svg>
